{"title":"Finding Dory - 2016 - HD-TS - Dual Audio (English - Hindi ) x264","uid":15204201,"size":848491982,"categoryP":"video","categoryS":"movies","magnet":"?xt=urn:btih:e80945bd1618add12b215aa8171800d7d489e2e6&amp;dn=Finding+Dory+-+2016+-+HD-TS+-+Dual+Audio+%28English+-+Hindi+%29+x264&amp;tr=udp%3A%2F%2Ftracker.leechers-paradise.org%3A6969&amp;tr=udp%3A%2F%2Fzer0day.ch%3A1337&amp;tr=udp%3A%2F%2Fopen.demonii.com%3A1337&amp;tr=udp%3A%2F%2Ftracker.coppersurfer.tk%3A6969&amp;tr=udp%3A%2F%2Fexodus.desync.com%3A6969","seeders":78,"leechers":10,"uploader":"makintos13","files":1,"time":1467609504,"description":"Finding Dory - 2016 - HD-TS - Dual Audio (English - Hindi ) x264 - 800MB - AAC - Makintos13\r\n\r\nScreens:\r\n \nhttps://imgmak.com/Tq8\r\n \nhttps://imgmak.com/TqL\r\n \nhttps://imgmak.com/TqX\r\n \nhttps://imgmak.com/TtC\r\n \nhttps://imgmak.com/TtK\r\n \nhttps://imgmak.com/TtT\r\n \nhttps://imgmak.com/Tta\r\n \nhttps://imgmak.com/Ttp\r\n \nhttps://imgmak.com/TtR\r\n\r\nFormat : Matroska\r\nFormat version : Version 4 / Version 2\r\nFile size : 809 MiB\r\nDuration : 1h 26mn\r\nOverall bit rate : 1 302 Kbps\r\n\r\nVideo\r\nID : 3\r\nFormat : AVC\r\nFormat/Info : Advanced Video Codec\r\nFormat profile :   \r\nFormat settings, CABAC : Yes\r\nFormat settings, ReFrames : 4 frames\r\nCodec ID : V_MPEG4/ISO/AVC\r\nDuration : 1h 26mn\r\nBit rate : 1 170 Kbps\r\nWidth : 720 pixels\r\nHeight : 384 pixels\r\nDisplay aspect ratio : 1.85:1\r\nFrame rate mode : Constant\r\nFrame rate : 29.970 (30000/1001) fps\r\nColor space : YUV\r\nChroma subsampling : 4:2:0\r\nBit depth : 8 bits\r\nScan type : Progressive\r\nBits/(Pixel*Frame) : 0.141\r\nStream size : 727 MiB (90%)\r\nDefault : Yes\r\nForced : No\r\n\r\nAudio #1\r\nID : 1\r\nFormat : AAC\r\nFormat/Info : Advanced Audio Codec\r\nFormat profile : LC\r\nCodec ID : A_AAC\r\nDuration : 1h 26mn\r\nBit rate : 64.3 Kbps\r\nChannel(s) : 2 channels\r\nChannel positions : Front: L R\r\nSampling rate : 48.0 KHz\r\nFrame rate : 46.875 fps (1024 spf)\r\nCompression mode : Lossy\r\nDelay relative to video : 46ms\r\nStream size : 40.0 MiB (5%)\r\nTitle : Stereo\r\nLanguage : English\r\nDefault : Yes\r\nForced : No\r\n\r\nAudio #2\r\nID : 2\r\nFormat : AAC\r\nFormat/Info : Advanced Audio Codec\r\nFormat profile : LC\r\nCodec ID : A_AAC\r\nDuration : 1h 26mn\r\nBit rate : 64.1 Kbps\r\nChannel(s) : 2 channels\r\nChannel positions : Front: L R\r\nSampling rate : 48.0 KHz\r\nFrame rate : 46.875 fps (1024 spf)\r\nCompression mode : Lossy\r\nDelay relative to video : 46ms\r\nStream size : 39.9 MiB (5%)\r\nTitle : Stereo\r\nLanguage : Hindi\r\nDefault : No\r\nForced : No","torrent":{"xt":"urn:btih:e80945bd1618add12b215aa8171800d7d489e2e6","amp;dn":"Finding+Dory+-+2016+-+HD-TS+-+Dual+Audio+%28English+-+Hindi+%29+x264","amp;tr":["udp%3A%2F%2Ftracker.leechers-paradise.org%3A6969","udp%3A%2F%2Fzer0day.ch%3A1337","udp%3A%2F%2Fopen.demonii.com%3A1337","udp%3A%2F%2Ftracker.coppersurfer.tk%3A6969","udp%3A%2F%2Fexodus.desync.com%3A6969"],"infoHash":"e80945bd1618add12b215aa8171800d7d489e2e6","infoHashBuffer":{"type":"Buffer","data":[232,9,69,189,22,24,173,209,43,33,90,168,23,24,0,215,212,137,226,230]},"announce":[],"urlList":[]}}